<svg width="145" height="144" viewBox="0 0 145 144" fill="none" xmlns="http://www.w3.org/2000/svg">
<g clip-path="url(#clip0_608_8041)">
<path d="M46.3824 95.1143C45.8926 94.5818 45.0465 94.5374 44.4898 95.0255C43.9332 95.5137 43.9109 96.3568 44.4008 96.9115C51.459 104.588 61.4785 109.004 71.9211 109.004C80.7605 109.004 89.3105 105.875 96.0348 100.195C96.5914 99.7293 96.6582 98.8862 96.1906 98.3093C95.723 97.7546 94.8769 97.688 94.298 98.154C88.0637 103.435 80.1148 106.341 71.8988 106.341C62.2578 106.319 52.9285 102.236 46.3824 95.1143Z" fill="#DD5757"/>
<path d="M126.605 38.7581H120.928C120.638 34.9196 119.146 31.3253 116.63 28.4187L127.474 17.6134C127.986 17.1031 127.986 16.26 127.474 15.7275C126.962 15.2171 126.116 15.2171 125.581 15.7275L114.738 26.5328C111.821 24.0256 108.214 22.539 104.362 22.2506V16.7481C104.362 16.0159 103.761 15.4168 103.026 15.4168C102.291 15.4168 101.69 16.0159 101.69 16.7481V22.2506C97.2593 22.5834 93.1179 24.5359 90.0452 27.7309C86.2378 26.1778 82.2077 25.1128 78.0886 24.5803C77.3538 24.4915 76.6858 25.0018 76.5968 25.734C76.5077 26.4662 77.0198 27.1318 77.7546 27.2206C81.3839 27.6865 84.9018 28.5962 88.2862 29.8831C86.7722 32.0575 85.7702 34.4981 85.3249 37.094C81.0499 35.4521 76.5522 34.6312 71.9433 34.6312C51.3698 34.6312 34.6483 51.3162 34.6483 71.7953C34.6483 72.7271 34.6929 73.659 34.7597 74.5909C34.8042 75.3009 35.4054 75.8334 36.0956 75.8334C36.1179 75.8334 36.1624 75.8334 36.2069 75.8334C36.9417 75.789 37.4983 75.1456 37.4315 74.4134C37.3647 73.5481 37.3425 72.6828 37.3425 71.8175C37.3425 52.7806 52.8839 37.3159 71.9655 37.3159C76.5077 37.3159 80.9386 38.1812 85.1022 39.8897C85.1022 39.9562 85.1022 40.045 85.1022 40.1115C85.1022 49.985 93.1624 58.0168 103.071 58.0168C103.271 58.0168 103.494 58.0168 103.716 57.9946C105.631 62.3656 106.611 67.0028 106.611 71.8175C106.611 79.2059 104.317 86.2393 99.9534 92.1634C99.5081 92.7625 99.6417 93.5834 100.243 94.0272C100.488 94.2047 100.755 94.2934 101.022 94.2934C101.423 94.2934 101.846 94.0937 102.091 93.7387C106.789 87.3487 109.26 79.7606 109.26 71.8175C109.26 66.914 108.325 62.1659 106.455 57.6618C109.06 57.1737 111.487 56.1087 113.625 54.5556C116.653 61.8109 117.721 69.754 116.697 77.6084C113.491 102.192 90.8245 119.587 66.1542 116.392C54.6651 114.906 44.3562 109.181 37.0308 100.262C37.6097 96.5565 39.1905 93.1397 41.6397 90.3218C42.9757 88.7687 44.5343 87.4597 46.2487 86.3947C47.1839 85.8178 47.6737 84.7528 47.5179 83.6656C47.362 82.5784 46.5827 81.7353 45.5362 81.469C39.7249 79.9603 33.6019 80.8034 28.4585 83.7322C26.8554 77.9634 26.4323 72.0172 27.2116 66.0043C29.6386 47.3446 43.5101 32.2793 61.5897 28.0415L59.9421 29.6612C59.4077 30.1715 59.4077 31.0146 59.9198 31.5471C60.187 31.8134 60.521 31.9465 60.8772 31.9465C61.2112 31.9465 61.5452 31.8134 61.8124 31.5693L66.5772 26.91C66.5995 26.8878 66.6218 26.8656 66.644 26.8434C66.644 26.8212 66.6663 26.8212 66.6663 26.799C66.6886 26.7768 66.7108 26.7546 66.7108 26.7325L66.7331 26.7103C66.7331 26.6881 66.7554 26.6881 66.7554 26.6659L66.7776 26.6437C66.7999 26.5993 66.8222 26.555 66.8444 26.5106C66.8444 26.5106 66.8444 26.4884 66.8667 26.4884C66.8667 26.4662 66.889 26.4218 66.889 26.3996C66.889 26.3775 66.889 26.3775 66.9112 26.3553C66.9112 26.3331 66.9335 26.3109 66.9335 26.2887V26.2665V26.2443C66.9335 26.2221 66.9335 26.2 66.9335 26.1778C66.9335 26.1556 66.9335 26.1334 66.9335 26.1112C66.9335 26.089 66.9335 26.089 66.9335 26.0668V26.0446V26.0225C66.9335 26.0003 66.9335 26.0003 66.9335 25.9781C66.9335 25.9559 66.9335 25.9559 66.9335 25.9337C66.9335 25.9115 66.9335 25.8671 66.9335 25.845C66.9335 25.8228 66.9335 25.8228 66.9335 25.8006V25.7784C66.9335 25.7562 66.9335 25.7562 66.9335 25.734C66.9335 25.7118 66.9112 25.6896 66.9112 25.6675C66.9112 25.6453 66.889 25.6231 66.889 25.6009C66.889 25.5787 66.8667 25.5565 66.8667 25.5565V25.5343C66.8667 25.5121 66.8667 25.5121 66.8444 25.49C66.8444 25.4678 66.8222 25.4456 66.8222 25.4234C66.8222 25.4012 66.7999 25.379 66.7999 25.3568C66.7999 25.3346 66.7776 25.3346 66.7776 25.3125C66.7776 25.3125 66.7776 25.2903 66.7554 25.2903C66.7554 25.2681 66.7331 25.2681 66.7331 25.2459L66.7108 25.2237C66.6886 25.2015 66.6663 25.1793 66.644 25.1571C66.644 25.1571 66.644 25.1571 66.6218 25.135L66.5995 25.1128C66.5772 25.0906 66.5772 25.0906 66.555 25.0684C66.5104 25.024 66.4659 24.9796 66.3991 24.9575C66.3323 24.9131 66.2655 24.8687 66.1765 24.8465H66.1542C66.1542 24.8465 66.1542 24.8465 66.1319 24.8465L60.0534 22.295C59.3632 22.0287 58.5839 22.3615 58.3167 23.0493C58.0495 23.7371 58.3835 24.5137 59.0737 24.78L60.8772 25.49C41.7733 30.0162 27.1226 45.9468 24.562 65.6715C23.6937 72.3278 24.228 78.9175 26.1206 85.2853C25.1632 85.9953 24.2726 86.794 23.4487 87.6372C19.3519 91.8528 17.103 97.444 17.103 103.346C17.103 109.27 19.3519 114.839 23.4487 119.055C27.7905 123.537 33.7132 125.955 39.814 125.955C41.7288 125.955 43.6437 125.711 45.5362 125.223C46.605 124.957 47.362 124.113 47.5179 123.026C47.6737 121.939 47.1839 120.874 46.2487 120.297C44.5343 119.232 42.9757 117.901 41.6397 116.37C38.6562 112.931 36.964 108.56 36.8081 104.034C44.4007 112.265 54.5761 117.546 65.7979 119.01C67.8909 119.277 69.9839 119.41 72.0546 119.41C82.5417 119.41 92.6726 115.993 101.111 109.514C111.22 101.748 117.699 90.5437 119.347 77.919C120.46 69.3103 119.235 60.6128 115.762 52.714C118.79 49.6743 120.66 45.6584 120.972 41.3984H126.605C127.34 41.3984 127.941 40.7993 127.941 40.0671C127.941 39.335 127.34 38.7581 126.605 38.7581ZM39.5913 118.145C41.1054 119.898 42.8644 121.384 44.8237 122.605C44.846 122.627 44.846 122.627 44.846 122.627C44.846 122.649 44.846 122.671 44.8237 122.671C37.8323 124.491 30.3511 122.405 25.3413 117.213C17.9269 109.581 17.9269 97.1334 25.3413 89.5009C26.2765 88.5468 27.3007 87.6593 28.414 86.905L28.4362 86.8828C33.2233 83.6212 39.1683 82.5784 44.8237 84.0428C44.8237 84.0428 44.846 84.065 44.8237 84.0872C44.8237 84.0872 44.8237 84.1093 44.8015 84.1093C42.8421 85.3075 41.0831 86.8162 39.569 88.569C36.6968 91.875 34.871 95.9353 34.2698 100.284C34.2476 100.395 34.2253 100.506 34.2253 100.617C33.4905 106.962 35.4276 113.352 39.5913 118.145ZM113.246 51.4272C113.224 51.4493 113.224 51.4493 113.246 51.4272C110.752 53.6459 107.702 54.955 104.407 55.2656C103.917 55.31 103.471 55.3321 103.048 55.3321C94.6097 55.3321 87.7519 48.4984 87.7519 40.0893C87.7519 39.8009 87.7741 39.4681 87.7964 39.0909C88.019 35.785 89.2659 32.7009 91.4257 30.1937C94.3425 26.799 98.5729 24.8687 103.026 24.8687C107.101 24.8687 110.953 26.444 113.847 29.3284C116.742 32.2128 118.323 36.029 118.323 40.0893C118.323 44.4159 116.475 48.5428 113.246 51.4272Z" fill="#364C49"/>
<path d="M71.9434 47.9216C71.2086 47.9216 70.6074 48.5207 70.6074 49.2529V71.8176C70.6074 72.1726 70.741 72.5054 70.9859 72.7494L79.6695 81.6466C79.9367 81.9129 80.2707 82.046 80.6269 82.046C80.9609 82.046 81.2949 81.9129 81.5621 81.6688C82.0965 81.1585 82.0965 80.3154 81.5844 79.7829L73.2793 71.2851V49.2529C73.2793 48.4985 72.6781 47.9216 71.9434 47.9216Z" fill="#DD5757"/>
</g>
<defs>
<clipPath id="clip0_608_8041">
<rect width="144" height="144" fill="white" transform="translate(0.5)"/>
</clipPath>
</defs>
</svg>
