<svg width="145" height="144" viewBox="0 0 145 144" fill="none" xmlns="http://www.w3.org/2000/svg">
<path d="M77.7271 120.01C51.8271 120.01 30.7271 98.9103 30.7271 73.0103C30.7271 47.1103 51.8271 26.0103 77.7271 26.0103C103.627 26.0103 124.727 47.1103 124.727 73.0103C124.727 98.9103 103.727 120.01 77.7271 120.01ZM77.7271 28.5103C53.2271 28.5103 33.3271 48.5103 33.3271 73.0103C33.3271 97.5103 53.2271 117.41 77.7271 117.41C102.227 117.41 122.127 97.5103 122.127 73.0103C122.127 48.5103 102.227 28.5103 77.7271 28.5103ZM109.927 67.7103C109.927 67.0103 109.327 66.4103 108.627 66.4103C107.927 66.4103 107.327 67.0103 107.327 67.7103C107.327 84.0103 94.0271 97.3102 77.7271 97.3102C61.4271 97.3102 48.2271 84.0103 48.2271 67.7103C48.2271 67.0103 47.6271 66.4103 46.927 66.4103C46.227 66.4103 45.6271 67.0103 45.6271 67.7103C45.6271 85.4103 60.0271 99.9103 77.8271 99.9103C95.6271 99.9103 109.927 85.4103 109.927 67.7103ZM73.8271 60.0103C73.8271 55.5103 70.1271 51.8103 65.6271 51.8103C61.1271 51.8103 57.427 55.5103 57.427 60.0103C57.427 60.7103 58.0271 61.3103 58.7271 61.3103C59.4271 61.3103 60.0271 60.7103 60.0271 60.0103C60.0271 56.9103 62.5271 54.4103 65.6271 54.4103C68.7271 54.4103 71.2271 56.9103 71.2271 60.0103C71.2271 60.7103 71.8271 61.3103 72.5271 61.3103C73.2271 61.3103 73.8271 60.7103 73.8271 60.0103ZM98.1271 60.0103C98.1271 55.5103 94.4271 51.8103 89.9271 51.8103C85.4271 51.8103 81.7271 55.5103 81.7271 60.0103C81.7271 60.7103 82.3271 61.3103 83.0271 61.3103C83.7271 61.3103 84.3271 60.7103 84.3271 60.0103C84.3271 56.9103 86.8271 54.4103 89.9271 54.4103C93.0271 54.4103 95.5271 56.9103 95.5271 60.0103C95.5271 60.7103 96.1271 61.3103 96.827 61.3103C97.527 61.3103 98.1271 60.7103 98.1271 60.0103Z" fill="#364C49"/>
<path d="M22.3696 45.1251C22.0791 45.1251 21.8012 45.0085 21.5973 44.802C20.1575 43.3412 18.7282 42.044 17.3458 40.7897C13.0676 36.9075 9.37305 33.5545 9.37305 28.5149C9.37305 24.5861 12.531 21.3896 16.4129 21.3896C19.3194 21.3896 21.0273 22.6919 22.3696 24.7795C23.7122 22.6921 25.4198 21.3896 28.3263 21.3896C32.2118 21.3896 35.373 24.5861 35.373 28.5149C35.373 33.5529 31.678 36.9043 27.3999 40.7848C26.0151 42.0408 24.5833 43.3396 23.1417 44.8023C22.9383 45.0085 22.6599 45.1251 22.3696 45.1251ZM16.4132 23.5524C13.7259 23.5524 11.54 25.7784 11.54 28.5147C11.54 32.5973 14.7454 35.506 18.8035 39.1889C19.9631 40.2411 21.1552 41.3229 22.3698 42.5145C23.5868 41.3208 24.7814 40.2375 25.9431 39.1834C30.0013 35.5026 33.2068 32.5953 33.2068 28.5144C33.2068 25.7782 31.0176 23.5522 28.3267 23.5522C26.019 23.5522 24.8078 24.5069 23.3421 27.481C23.1598 27.8508 22.7828 28.0852 22.3701 28.0852C21.9573 28.0852 21.5803 27.851 21.398 27.4808C19.9323 24.5071 18.7211 23.5524 16.4132 23.5524Z" fill="#DD5757"/>
</svg>
