<svg width="145" height="144" viewBox="0 0 145 144" fill="none" xmlns="http://www.w3.org/2000/svg">
<path d="M135.317 69.8892H125.132C124.617 69.8892 124.124 70.0931 123.76 70.4562C123.396 70.8193 123.192 71.3117 123.192 71.8252C123.192 72.3386 123.396 72.8311 123.76 73.1941C124.124 73.5572 124.617 73.7612 125.132 73.7612H135.317C135.831 73.7612 136.325 73.5572 136.689 73.1941C137.053 72.8311 137.257 72.3386 137.257 71.8252C137.257 71.3117 137.053 70.8193 136.689 70.4562C136.325 70.0931 135.831 69.8892 135.317 69.8892Z" fill="#364C49"/>
<path d="M72.6744 122.587C72.1599 122.587 71.6664 122.791 71.3026 123.154C70.9388 123.518 70.7344 124.01 70.7344 124.523V134.687C70.7344 135.201 70.9388 135.693 71.3026 136.056C71.6664 136.419 72.1599 136.623 72.6744 136.623C73.1889 136.623 73.6823 136.419 74.0462 136.056C74.41 135.693 74.6144 135.201 74.6144 134.687V124.523C74.6144 124.01 74.41 123.518 74.0462 123.154C73.6823 122.791 73.1889 122.587 72.6744 122.587Z" fill="#364C49"/>
<path d="M19.8677 70.2378H9.68268C9.16816 70.2378 8.67471 70.4418 8.31089 70.8048C7.94707 71.1679 7.74268 71.6603 7.74268 72.1738C7.74268 72.6872 7.94707 73.1797 8.31089 73.5427C8.67471 73.9058 9.16816 74.1098 9.68268 74.1098H19.8677C20.3822 74.1098 20.8756 73.9058 21.2395 73.5427C21.6033 73.1797 21.8077 72.6872 21.8077 72.1738C21.8077 71.6603 21.6033 71.1679 21.2395 70.8048C20.8756 70.4418 20.3822 70.2378 19.8677 70.2378Z" fill="#364C49"/>
<path d="M72.3248 21.4125C72.8393 21.4125 73.3327 21.2085 73.6966 20.8454C74.0604 20.4824 74.2648 19.9899 74.2648 19.4765V9.31247C74.2648 8.79901 74.0604 8.30658 73.6966 7.9435C73.3327 7.58043 72.8393 7.37646 72.3248 7.37646C71.8102 7.37646 71.3168 7.58043 70.953 7.9435C70.5892 8.30658 70.3848 8.79901 70.3848 9.31247V19.4765C70.3848 19.9899 70.5892 20.4824 70.953 20.8454C71.3168 21.2085 71.8102 21.4125 72.3248 21.4125Z" fill="#364C49"/>
<path d="M33.6996 36.3574C34.0707 36.6746 34.5481 36.8403 35.0363 36.8215C35.5246 36.8027 35.9877 36.6007 36.3332 36.2559C36.6788 35.9111 36.8812 35.4489 36.9 34.9617C36.9189 34.4744 36.7528 33.998 36.435 33.6277L32.555 29.7557C32.1842 29.485 31.7292 29.3545 31.271 29.3873C30.8128 29.4201 30.3811 29.6141 30.0528 29.9347C29.7245 30.2554 29.5208 30.6819 29.4781 31.1384C29.4354 31.5948 29.5564 32.0516 29.8196 32.4273L33.6996 36.3574Z" fill="#364C49"/>
<path d="M34.0296 107.893L30.1496 111.765C29.9636 111.941 29.8143 112.153 29.7102 112.387C29.6062 112.621 29.5494 112.874 29.5431 113.13C29.5368 113.386 29.5811 113.641 29.6735 113.88C29.7659 114.119 29.9046 114.338 30.0817 114.523C30.2587 114.709 30.4707 114.858 30.7054 114.962C30.9402 115.066 31.1931 115.122 31.4499 115.129C31.7066 115.135 31.962 115.091 32.2016 114.999C32.4412 114.906 32.6602 114.768 32.8462 114.591L36.7262 110.719C37.044 110.349 37.2101 109.872 37.1912 109.385C37.1723 108.898 36.9699 108.436 36.6244 108.091C36.2789 107.746 35.8158 107.544 35.3275 107.525C34.8393 107.507 34.3619 107.672 33.9908 107.989L34.0296 107.893Z" fill="#364C49"/>
<path d="M111.3 107.642C110.928 107.325 110.451 107.159 109.963 107.178C109.475 107.197 109.011 107.399 108.666 107.743C108.32 108.088 108.118 108.55 108.099 109.038C108.08 109.525 108.246 110.001 108.564 110.372L112.444 114.244C112.815 114.514 113.27 114.645 113.728 114.612C114.186 114.579 114.618 114.385 114.946 114.064C115.275 113.744 115.478 113.317 115.521 112.861C115.564 112.404 115.443 111.948 115.18 111.572L111.3 107.642Z" fill="#364C49"/>
<path d="M109.592 36.6677C109.848 36.6692 110.101 36.6203 110.337 36.524C110.573 36.4277 110.788 36.2857 110.97 36.1063L114.85 32.2343C115.225 31.8774 115.443 31.3863 115.456 30.8689C115.469 30.3515 115.275 29.8503 114.918 29.4755C114.56 29.1006 114.068 28.8829 113.549 28.8702C113.031 28.8575 112.529 29.0509 112.153 29.4077L108.273 33.2797C108 33.5505 107.813 33.8965 107.737 34.2735C107.661 34.6505 107.7 35.0415 107.848 35.3967C107.995 35.7518 108.246 36.055 108.567 36.2676C108.888 36.4802 109.265 36.5925 109.651 36.5903L109.592 36.6677Z" fill="#364C49"/>
<path d="M77.9885 61.8461L68.2902 71.5244L67.2155 70.3593C66.8031 69.9176 66.3041 69.5651 65.7496 69.3236C65.195 69.0822 64.5966 68.9571 63.9916 68.9559C63.1222 68.9572 62.2727 69.2153 61.55 69.6976C60.8273 70.1798 60.2638 70.8647 59.9305 71.666C59.5971 72.4672 59.5088 73.349 59.6766 74.2003C59.8445 75.0515 60.2611 75.8342 60.8738 76.4496L67.2951 82.8709C67.4191 82.9937 67.5661 83.0907 67.7278 83.1566C67.8894 83.2225 68.0625 83.2559 68.2371 83.2549C68.4117 83.2559 68.5848 83.2225 68.7464 83.1566C68.9081 83.0907 69.0551 82.9937 69.1791 82.8709L84.1312 67.9762C84.5351 67.574 84.8556 67.0963 85.0743 66.5703C85.293 66.0444 85.4055 65.4806 85.4055 64.9111C85.4055 64.3417 85.293 63.7779 85.0743 63.252C84.8556 62.726 84.5351 62.2483 84.1312 61.8461C83.3041 61.0571 82.204 60.6167 81.0598 60.6167C79.9156 60.6167 78.8155 61.0571 77.9885 61.8461ZM82.2605 63.7129C82.4177 63.8692 82.5425 64.0549 82.6277 64.2593C82.7128 64.4638 82.7566 64.6831 82.7566 64.9045C82.7566 65.126 82.7128 65.3452 82.6277 65.5497C82.5425 65.7542 82.4177 65.9399 82.2605 66.0961L68.2371 80.0773L62.7578 74.5961C62.5877 74.4331 62.4523 74.2376 62.3598 74.0212C62.2673 73.8048 62.2195 73.572 62.2193 73.3368C62.2191 73.1015 62.2665 72.8686 62.3587 72.652C62.4508 72.4355 62.5859 72.2398 62.7557 72.0765C62.9255 71.9133 63.1265 71.786 63.3468 71.7022C63.5671 71.6184 63.8021 71.5799 64.0377 71.5889C64.2733 71.598 64.5046 71.6544 64.7178 71.7547C64.931 71.8551 65.1218 71.9975 65.2785 72.1732L67.2951 74.3313C67.4158 74.4612 67.5613 74.5656 67.7231 74.6384C67.8849 74.7111 68.0597 74.7508 68.2371 74.7549C68.4161 74.7595 68.5943 74.7278 68.7607 74.6618C68.9272 74.5958 69.0785 74.4969 69.2056 74.371L79.8193 63.7791C80.1335 63.4508 80.5649 63.2596 81.0196 63.2472C81.4744 63.2348 81.9156 63.4022 82.2472 63.7129H82.2605Z" fill="#DD5757"/>
<path d="M116.543 72.6923C116.543 84.8127 111.649 95.7875 103.726 103.752C95.7476 111.773 84.7042 116.736 72.4994 116.736C48.1749 116.736 28.4561 97.0168 28.4561 72.6923C28.4561 60.4884 33.418 49.4458 41.4374 41.4678C49.4026 33.5438 60.3782 28.6489 72.4994 28.6489C84.7042 28.6489 95.7476 33.6116 103.726 41.6321C111.649 49.5971 116.543 60.5719 116.543 72.6923Z" stroke="#364C49" stroke-width="2.5"/>
<path d="M105.374 84.5542C106.711 80.8507 107.439 76.8565 107.439 72.6922C107.439 53.3953 91.7963 37.7522 72.4994 37.7522C62.8175 37.7522 54.0553 41.6902 47.7273 48.0519C41.4431 54.3695 37.5594 63.0773 37.5594 72.6922C37.5594 76.8565 38.2879 80.8507 39.6245 84.5542" stroke="#364C49" stroke-width="2.5" stroke-linecap="round"/>
<path d="M97.1411 97.463C90.8234 103.748 82.115 107.632 72.4993 107.632C62.8174 107.632 54.0552 103.694 47.7272 97.3326" stroke="#DD5757" stroke-width="2.5" stroke-linecap="round"/>
</svg>
