<svg width="145" height="144" viewBox="0 0 145 144" fill="none" xmlns="http://www.w3.org/2000/svg">
<path d="M130.575 45.9723H112.072C111.433 45.9723 110.891 45.5062 110.795 44.8756C109.673 37.4303 106.345 30.5372 101.171 24.9418C100.824 24.5657 100.732 24.02 100.938 23.5509C101.143 23.0821 101.607 22.7791 102.12 22.7791H122.832C126.39 22.7791 129.285 25.6692 129.285 29.2216C129.285 30.6706 128.803 32.0097 127.992 33.087H130.576C134.134 33.087 137.029 35.9772 137.029 39.5295C137.029 43.0818 134.133 45.9723 130.575 45.9723ZM113.167 43.3952H130.575C132.71 43.3952 134.447 41.6612 134.447 39.5298C134.447 37.3984 132.711 35.6643 130.575 35.6643H122.832C122.119 35.6643 121.541 35.0875 121.541 34.3759C121.541 33.6644 122.119 33.0873 122.832 33.0873C124.967 33.0873 126.704 31.3532 126.704 29.2218C126.704 27.0904 124.967 25.3564 122.832 25.3564H104.933C109.163 30.6185 111.982 36.7866 113.167 43.3952Z" fill="#364C49"/>
<path d="M91.8578 97.5123H53.1408C52.4811 97.5123 51.9277 97.0156 51.8575 96.3608C51.1858 90.0833 46.3848 82.3019 41.7423 74.7767C36.5599 66.3768 31.2012 57.6908 31.2012 50.4936C31.2012 28.1069 49.7276 9.89404 72.4993 9.89404C84.111 9.89404 95.2525 14.7413 103.067 23.1936C108.593 29.1695 112.147 36.5343 113.347 44.4919C113.646 46.4733 113.797 48.4926 113.797 50.4936C113.797 57.6433 108.441 66.3438 103.261 74.7576C98.6152 82.3041 93.8115 90.1076 93.1409 96.3611C93.0709 97.0159 92.5175 97.5123 91.8578 97.5123ZM54.2638 94.9355H90.7353C91.8581 88.3591 96.5334 80.7656 101.063 73.4084C106.054 65.2995 111.217 56.9149 111.217 50.4936C111.217 48.6205 111.074 46.7305 110.795 44.8753C109.673 37.43 106.344 30.5369 101.171 24.9415C93.8429 17.0165 83.3928 12.4711 72.4993 12.4711C51.1508 12.4711 33.7824 29.5281 33.7824 50.4936C33.7824 56.9607 38.9461 65.3306 43.9402 73.4253C48.4674 80.764 53.1406 88.3389 54.2638 94.9355Z" fill="#364C49"/>
<path d="M84.3651 97.5123H60.6351C59.9549 97.5123 59.3919 96.9856 59.3474 96.3082C58.9292 89.9322 55.9735 82.1157 53.1153 74.5561C49.9558 66.2009 46.689 57.5612 46.689 50.4936C46.689 39.7556 49.3089 29.6418 54.0659 22.0154C58.9417 14.1989 65.4883 9.89404 72.5003 9.89404C79.5123 9.89404 86.0588 14.1989 90.9343 22.0154C95.6916 29.6418 98.3116 39.7556 98.3116 50.4936C98.3116 57.5135 95.0461 66.1679 91.888 74.5367C89.0276 82.1173 86.0703 89.9559 85.6529 96.3079C85.6081 96.9856 85.0451 97.5123 84.3651 97.5123ZM61.8185 94.9355H83.1818C83.8759 88.4611 86.7185 80.9282 89.4729 73.6285C92.549 65.4754 95.7301 57.0444 95.7301 50.4939C95.7301 29.5281 85.3092 12.4714 72.5 12.4714C59.6908 12.4714 49.2696 29.5284 49.2696 50.4939C49.2696 57.091 52.452 65.507 55.5298 73.6462C58.2829 80.9271 61.1241 88.4415 61.8185 94.9355Z" fill="#364C49"/>
<path d="M76.8705 97.5122H68.128C67.4273 97.5122 66.8548 96.9542 66.8378 96.2549C66.681 89.7606 65.5845 81.8898 64.5241 74.2778C63.3691 65.9878 62.1748 57.415 62.1748 50.4939C62.1748 39.8993 63.126 29.9252 64.8535 22.4086C66.7616 14.1047 69.334 9.89429 72.4993 9.89429C75.6645 9.89429 78.2367 14.1047 80.145 22.4086C81.8723 29.9252 82.8237 39.8993 82.8237 50.4939C82.8237 57.3681 81.63 65.9554 80.4756 74.2601C79.4146 81.8928 78.3175 89.786 78.1604 96.2552C78.1438 96.9542 77.571 97.5122 76.8705 97.5122ZM69.3772 94.9354H75.6211C75.8787 88.5808 76.9145 81.1281 77.9187 73.9058C79.0611 65.6878 80.2426 57.19 80.2426 50.4939C80.2426 40.0877 79.3146 30.3179 77.6291 22.9849C75.7221 14.6857 73.5073 12.4711 72.4993 12.4711C71.4913 12.4711 69.2764 14.6854 67.3691 22.9847C65.6839 30.3179 64.7557 40.0875 64.7557 50.4936C64.7557 57.2364 65.9377 65.7192 67.0804 73.9227C68.084 81.1272 69.1199 88.5617 69.3772 94.9354Z" fill="#364C49"/>
<path d="M78.9514 107.821C78.7495 107.821 78.5446 107.773 78.3534 107.673C77.7218 107.343 77.4784 106.564 77.8095 105.934L83.2219 95.6257C83.5527 94.9952 84.3323 94.7527 84.9641 95.0827C85.5954 95.413 85.8388 96.1919 85.508 96.8222L80.0957 107.13C79.8649 107.57 79.4161 107.821 78.9514 107.821Z" fill="#364C49"/>
<path d="M66.0481 107.821C65.5834 107.821 65.1346 107.57 64.904 107.13L59.492 96.8224C59.1612 96.1921 59.4046 95.4132 60.0359 95.0829C60.6672 94.7529 61.4473 94.9959 61.7779 95.6259L67.1899 105.934C67.5207 106.564 67.2773 107.343 66.646 107.673C66.4551 107.773 66.2499 107.821 66.0481 107.821Z" fill="#364C49"/>
<path d="M45.398 120.705H22.1676C18.6095 120.705 15.7147 117.815 15.7147 114.263C15.7147 112.814 16.1966 111.474 17.0082 110.397H14.424C10.866 110.397 7.97119 107.507 7.97119 103.955C7.97119 100.402 10.866 97.5122 14.424 97.5122H37.6544C41.2124 97.5122 44.1072 100.402 44.1072 103.955C44.1072 105.404 43.6254 106.743 42.8138 107.82H45.398C48.956 107.82 51.8508 110.711 51.8508 114.263C51.8508 117.815 48.956 120.705 45.398 120.705ZM23.4583 109.109C23.4583 109.821 22.8803 110.397 22.1676 110.397C20.0327 110.397 18.2959 112.132 18.2959 114.263C18.2959 116.395 20.0327 118.129 22.1676 118.129H45.398C47.5328 118.129 49.2696 116.395 49.2696 114.263C49.2696 112.132 47.5328 110.397 45.398 110.397H37.6544C36.9417 110.397 36.3637 109.821 36.3637 109.109C36.3637 108.397 36.9417 107.82 37.6544 107.82C39.7892 107.82 41.526 106.086 41.526 103.955C41.526 101.823 39.7892 100.089 37.6544 100.089H14.424C12.2892 100.089 10.5524 101.823 10.5524 103.955C10.5524 106.086 12.2892 107.82 14.424 107.82H22.1676C22.8803 107.82 23.4583 108.397 23.4583 109.109Z" fill="#364C49"/>
<path d="M72.4954 134.106C72.1493 134.106 71.8182 133.967 71.5754 133.721C69.8602 131.981 68.1575 130.436 66.5105 128.941C61.414 124.316 57.0127 120.322 57.0127 114.318C57.0127 109.638 60.7748 105.83 65.3993 105.83C68.8617 105.83 70.8963 107.381 72.4954 109.868C74.0948 107.382 76.1291 105.83 79.5916 105.83C84.2204 105.83 87.9864 109.638 87.9864 114.318C87.9864 120.32 83.5845 124.313 78.488 128.935C76.8383 130.432 75.1326 131.979 73.4152 133.721C73.1729 133.967 72.8413 134.106 72.4954 134.106ZM65.3996 108.407C62.1983 108.407 59.5942 111.058 59.5942 114.318C59.5942 119.182 63.4128 122.647 68.2471 127.034C69.6285 128.288 71.0487 129.576 72.4957 130.996C73.9454 129.574 75.3686 128.283 76.7525 127.028C81.5871 122.643 85.4057 119.179 85.4057 114.318C85.4057 111.058 82.7978 108.406 79.5921 108.406C76.8429 108.406 75.4001 109.544 73.654 113.087C73.4368 113.527 72.9877 113.806 72.496 113.806C72.0043 113.806 71.5552 113.527 71.338 113.086C69.5919 109.544 68.149 108.407 65.3996 108.407Z" fill="#DD5757"/>
</svg>
