<svg width="52" height="73" viewBox="0 0 52 73" fill="none" xmlns="http://www.w3.org/2000/svg">
<path d="M22.2372 41.9755H22.4939C26.7673 36.1845 29.6137 34.7047 32.9282 34.7047C38.2511 34.7047 41.7846 38.7591 41.7846 44.1348C41.7846 56.4643 25.1742 58.3141 25.1742 65.6906C25.1711 66.2082 25.2717 66.7212 25.4702 67.1992C25.6687 67.6773 25.961 68.1107 26.3298 68.4739C26.6986 68.8371 27.1364 69.1227 27.6175 69.3138C28.0986 69.5048 28.613 69.5976 29.1305 69.5865C31.4484 69.5865 34.6119 68.0085 37.0884 64.0522L38.6664 65.0035C36.0842 69.4808 32.2941 72.75 26.4955 72.75C12.6863 72.75 2.33496 58.6236 2.33496 46.0903C2.33496 38.8648 5.91371 32.5 11.9236 32.5C13.4237 32.5048 14.894 32.9195 16.1755 33.6993C17.4569 34.4791 18.5009 35.5943 19.1945 36.9244C17.5597 41.5095 16.6725 46.3276 16.567 51.1942C16.5149 55.2365 17.323 59.2437 18.9378 62.9499C18.3354 60.3921 18.0464 57.7705 18.0771 55.143" fill="#DD5757"/>
<path d="M23.9351 41.0065C27.9351 27.5931 35.4651 13.3268 34.8251 11.9759C34.0251 10.2513 31.9051 7.24286 31.3651 8.96745C31.3651 8.96745 26.9351 18.9701 22.9351 31.4255C19.9351 40.9395 18.7725 42.373 18.0625 55.25C18.8425 59.3411 20.9351 62.5544 21.9351 61.5771C22.9351 60.5998 21.6551 58.3579 25.6351 43.7659" fill="#DD5757"/>
<path d="M29.7124 24.8432C30.398 25.4634 31.238 25.9315 32.1645 26.2094C33.091 26.4873 34.078 26.5674 35.0457 26.4431C48.1769 23.8994 54.5101 8.96048 51.0354 4.07972C47.5607 -0.801038 29.9447 -0.216781 15.2276 7.79198C0.51057 15.8007 -2.27726 22.3713 1.55099 24.9151C5.37924 27.4588 12.2175 26.5959 14.4195 24.4836C16.6215 22.3713 13.2579 24.6274 7.2277 23.8275C1.19745 23.0275 5.49033 17.4816 15.1064 10.929C24.7225 4.37634 51.8435 -2.04145 46.1667 11.1447C40.49 24.3308 29.6013 24.9151 29.6013 24.9151" fill="#DD5757"/>
</svg>
