<svg width="24" height="24" viewBox="0 0 24 24" fill="none" xmlns="http://www.w3.org/2000/svg">
<path d="M22.5576 7.56605C22.5455 6.65719 22.3753 5.75738 22.0548 4.90685C21.7768 4.18943 21.3522 3.53788 20.8082 2.99384C20.2641 2.4498 19.6126 2.02523 18.8952 1.74725C18.0556 1.43207 17.1686 1.26166 16.272 1.24325C15.1176 1.19165 14.7516 1.17725 11.8212 1.17725C8.89078 1.17725 8.51518 1.17725 7.36918 1.24325C6.47297 1.26179 5.5864 1.43221 4.74718 1.74725C4.02965 2.02503 3.378 2.44954 2.83394 2.99361C2.28987 3.53767 1.86537 4.18932 1.58758 4.90685C1.27178 5.7458 1.10173 6.63258 1.08478 7.52885C1.03318 8.68445 1.01758 9.05045 1.01758 11.9808C1.01758 14.9112 1.01758 15.2856 1.08478 16.4328C1.10278 17.3304 1.27198 18.216 1.58758 19.0572C1.86583 19.7746 2.29065 20.4259 2.8349 20.9698C3.37915 21.5136 4.03085 21.9379 4.74838 22.2156C5.5853 22.5435 6.47202 22.7261 7.37038 22.7556C8.52598 22.8072 8.89198 22.8228 11.8224 22.8228C14.7528 22.8228 15.1284 22.8228 16.2744 22.7556C17.171 22.738 18.058 22.568 18.8976 22.2528C19.6148 21.9745 20.2662 21.5499 20.8102 21.0059C21.3542 20.4619 21.7789 19.8105 22.0572 19.0932C22.3728 18.2532 22.542 17.3676 22.56 16.4688C22.6116 15.3144 22.6272 14.9484 22.6272 12.0168C22.6248 9.08645 22.6248 8.71445 22.5576 7.56605ZM11.814 17.5224C8.74918 17.5224 6.26638 15.0396 6.26638 11.9748C6.26638 8.91005 8.74918 6.42725 11.814 6.42725C13.2853 6.42725 14.6963 7.01172 15.7367 8.0521C16.7771 9.09248 17.3616 10.5035 17.3616 11.9748C17.3616 13.4462 16.7771 14.8572 15.7367 15.8976C14.6963 16.938 13.2853 17.5224 11.814 17.5224ZM17.5824 7.51565C17.4125 7.5158 17.2442 7.48245 17.0872 7.4175C16.9301 7.35254 16.7875 7.25726 16.6673 7.13711C16.5472 7.01696 16.4519 6.87429 16.3869 6.71727C16.322 6.56025 16.2886 6.39197 16.2888 6.22205C16.2888 6.05225 16.3222 5.88411 16.3872 5.72724C16.4522 5.57036 16.5474 5.42782 16.6675 5.30776C16.7876 5.18769 16.9301 5.09245 17.087 5.02747C17.2438 4.96249 17.412 4.92905 17.5818 4.92905C17.7516 4.92905 17.9197 4.96249 18.0766 5.02747C18.2335 5.09245 18.376 5.18769 18.4961 5.30776C18.6161 5.42782 18.7114 5.57036 18.7764 5.72724C18.8413 5.88411 18.8748 6.05225 18.8748 6.22205C18.8748 6.93725 18.2964 7.51565 17.5824 7.51565Z" fill="#38524F"/>
<path d="M11.8145 15.5783C13.8048 15.5783 15.4181 13.9649 15.4181 11.9747C15.4181 9.98448 13.8048 8.37109 11.8145 8.37109C9.82432 8.37109 8.21094 9.98448 8.21094 11.9747C8.21094 13.9649 9.82432 15.5783 11.8145 15.5783Z" fill="#38524F"/>
</svg>
