<svg width="24" height="25" viewBox="0 0 24 25" fill="none" xmlns="http://www.w3.org/2000/svg">
<path d="M22.5576 8.06606C22.5455 7.15721 22.3753 6.25739 22.0548 5.40686C21.7768 4.68944 21.3522 4.0379 20.8082 3.49386C20.2641 2.94982 19.6126 2.52524 18.8952 2.24726C18.0556 1.93209 17.1686 1.76167 16.272 1.74326C15.1176 1.69166 14.7516 1.67726 11.8212 1.67726C8.89078 1.67726 8.51518 1.67726 7.36918 1.74326C6.47297 1.76181 5.5864 1.93222 4.74718 2.24726C4.02965 2.52505 3.378 2.94955 2.83394 3.49362C2.28987 4.03769 1.86537 4.68933 1.58758 5.40686C1.27178 6.24582 1.10173 7.13259 1.08478 8.02886C1.03318 9.18446 1.01758 9.55046 1.01758 12.4809C1.01758 15.4113 1.01758 15.7857 1.08478 16.9329C1.10278 17.8305 1.27198 18.7161 1.58758 19.5573C1.86583 20.2746 2.29065 20.926 2.8349 21.4698C3.37915 22.0136 4.03085 22.438 4.74838 22.7157C5.5853 23.0435 6.47202 23.2261 7.37038 23.2557C8.52598 23.3073 8.89198 23.3229 11.8224 23.3229C14.7528 23.3229 15.1284 23.3229 16.2744 23.2557C17.171 23.238 18.058 23.068 18.8976 22.7529C19.6148 22.4746 20.2662 22.0499 20.8102 21.5059C21.3542 20.9619 21.7789 20.3105 22.0572 19.5933C22.3728 18.7533 22.542 17.8677 22.56 16.9689C22.6116 15.8145 22.6272 15.4485 22.6272 12.5169C22.6248 9.58646 22.6248 9.21446 22.5576 8.06606V8.06606ZM11.814 18.0225C8.74918 18.0225 6.26638 15.5397 6.26638 12.4749C6.26638 9.41006 8.74918 6.92726 11.814 6.92726C13.2853 6.92726 14.6963 7.51174 15.7367 8.55212C16.7771 9.59249 17.3616 11.0035 17.3616 12.4749C17.3616 13.9462 16.7771 15.3572 15.7367 16.3976C14.6963 17.438 13.2853 18.0225 11.814 18.0225V18.0225ZM17.5824 8.01566C17.4125 8.01582 17.2442 7.98247 17.0872 7.91751C16.9301 7.85256 16.7875 7.75728 16.6673 7.63713C16.5472 7.51697 16.4519 7.3743 16.3869 7.21729C16.322 7.06027 16.2886 6.89198 16.2888 6.72206C16.2888 6.55226 16.3222 6.38413 16.3872 6.22725C16.4522 6.07038 16.5474 5.92784 16.6675 5.80777C16.7876 5.68771 16.9301 5.59246 17.087 5.52749C17.2438 5.46251 17.412 5.42906 17.5818 5.42906C17.7516 5.42906 17.9197 5.46251 18.0766 5.52749C18.2335 5.59246 18.376 5.68771 18.4961 5.80777C18.6161 5.92784 18.7114 6.07038 18.7764 6.22725C18.8413 6.38413 18.8748 6.55226 18.8748 6.72206C18.8748 7.43726 18.2964 8.01566 17.5824 8.01566Z" fill="#DD5757"/>
<path d="M11.8145 16.0783C13.8048 16.0783 15.4181 14.4649 15.4181 12.4747C15.4181 10.4845 13.8048 8.87109 11.8145 8.87109C9.82432 8.87109 8.21094 10.4845 8.21094 12.4747C8.21094 14.4649 9.82432 16.0783 11.8145 16.0783Z" fill="#DD5757"/>
</svg>
