<svg width="144" height="81" viewBox="0 0 144 81" fill="none" xmlns="http://www.w3.org/2000/svg">
<path d="M142.533 17.9274C141.179 21.7838 137.231 27.3818 133.846 28.1282C130.574 28.999 129.22 25.3914 130.8 18.1762C132.379 10.961 137.569 7.60215 138.133 10.5878C138.81 13.8222 134.974 15.4394 134.974 15.4394C141.631 21.0374 143.549 6.98015 136.892 6.73135C131.364 6.48255 128.092 13.2002 127.415 14.5686C127.19 15.0662 126.287 16.8078 125.723 19.1714C125.723 19.1714 122.79 30.865 119.405 30.7406C116.02 30.6162 122.451 15.315 123.241 12.5782C124.031 9.84135 120.872 10.8366 119.743 10.8366C118.841 10.8366 118.728 11.4586 117.825 14.5686C117.487 13.3246 116.02 9.96575 111.846 12.827C106.769 16.1858 102.82 24.1474 102.707 31.2382C102.595 38.2046 109.702 41.1902 114.215 29.8698C114.215 32.3578 115.118 34.2238 117.487 34.3482C121.548 34.7214 124.031 29.1234 125.272 25.3914C125.61 27.8794 126.851 30.1186 129.897 31.2382C138.359 34.4726 144 19.2958 144 19.2958C144 19.2958 143.436 15.4394 142.533 17.9274ZM108.348 32.4822C106.656 31.487 109.138 24.645 109.928 22.4058C110.943 19.5446 114.441 13.6978 115.907 15.1906C117.374 16.6834 114.328 24.645 114.328 24.645C114.328 24.645 110.718 33.8506 108.348 32.4822Z" fill="#DD5757"/>
<path d="M84.5479 0.884048C67.2863 4.61605 57.0196 18.3001 56.117 21.6589C55.1016 25.0177 61.8709 22.4053 62.435 20.1661C62.9991 17.9269 63.5632 16.8073 70.4452 11.0849C77.3273 5.36245 103.615 -4.21636 99.8915 15.1901C96.0556 34.5965 82.9684 39.3237 82.9684 39.3237C85.112 30.7401 89.9632 13.0753 89.0607 11.0849C88.0453 9.09446 85.9017 7.22845 85.5632 8.59685C85.5632 8.59685 83.4196 17.3049 81.0504 27.6301C80.8248 28.3765 78.5683 37.7065 72.9273 41.8117C67.0606 46.0413 66.6093 40.4433 67.1734 35.5917C67.7375 30.8645 71.1222 22.5297 73.9427 24.2713C76.7632 26.1373 72.2504 30.6157 72.2504 30.6157C76.7632 34.3477 79.0196 26.2617 76.4247 23.0273C73.717 19.7929 67.6247 21.2857 64.1273 29.1229C63.5632 30.3669 63.1119 31.6109 62.6606 32.9793C62.6606 32.9793 58.9375 45.7925 55.5529 45.6681C52.1683 45.5437 58.599 30.2425 59.3888 27.5057C60.2914 24.7689 57.0196 25.7641 55.8913 25.7641C54.7631 25.7641 54.7631 26.7593 53.0708 32.3573C51.3785 37.9553 47.5426 48.7781 53.5221 49.2757C57.358 49.6489 60.1785 43.9265 61.6452 39.6969C61.758 43.8021 63.676 46.9121 68.076 46.5389C73.9427 46.0413 77.553 39.5725 79.0196 36.2137C76.1991 47.9073 73.8299 58.4813 74.1683 59.3521C74.8453 61.3425 77.6658 63.7061 78.5683 63.2085C79.4709 62.7109 80.5991 48.6537 82.4043 41.0653C82.5171 40.5677 82.6299 40.0701 82.8555 39.4481C84.7735 41.6873 88.2709 41.3141 88.2709 41.3141C96.394 39.9457 103.05 24.6445 104.517 15.3145C106.097 5.86005 101.809 -2.84796 84.5479 0.884048Z" fill="#DD5757"/>
<path d="M49.6832 17.3089C46.2986 9.09849 29.1498 9.96929 14.8216 23.6533C0.493318 37.3374 -2.21438 48.5334 1.50871 52.8874C5.23179 57.2414 11.8882 55.7486 14.0318 52.141C16.1754 48.5334 12.9036 52.3898 7.03693 51.0214C1.17025 49.653 5.34462 40.1986 14.7087 29.0025C24.0729 17.8065 50.473 6.85928 44.9447 29.3757C39.5293 51.8922 28.8114 52.8874 28.8114 52.8874C31.8575 39.9498 35.4678 28.0073 34.5652 26.6389C33.437 24.8973 30.6165 21.9117 30.1652 23.7777C30.1652 23.7777 18.4318 71.9207 19.7857 76.1503C21.1395 80.3799 23.5088 81.0019 24.637 79.8823C25.7652 78.8871 23.9601 76.5235 27.119 60.849C27.6831 58.2366 28.2472 55.4998 28.9242 52.763C31.0678 56.3706 34.1139 55.4998 34.1139 55.4998C46.8627 51.1458 53.0678 25.6437 49.6832 17.3089Z" fill="#DD5757"/>
</svg>
