<svg width="100" height="96" viewBox="0 0 100 96" fill="none" xmlns="http://www.w3.org/2000/svg">
<g clip-path="url(#clip0_801:5372)">
<path d="M31.1608 1.57644C28.8337 4.52625 27.5254 8.54495 26.0877 11.9695C23.2021 18.8317 20.5234 25.782 17.8679 32.7246C14.672 41.0958 11.527 49.4843 8.43282 57.8901C6.91934 61.9789 5.40845 66.0694 3.90015 70.1616C2.80641 73.1607 1.21105 76.2558 0.621521 79.3716C-1.28412 89.4638 19.5822 90.5431 25.7801 91.4511C38.2068 93.2672 50.7395 94.8861 63.2722 95.7422C65.1055 95.8667 67.5618 96.5205 68.909 95.0443C70.7732 92.9844 71.8204 89.4508 72.9452 86.968C77.8476 76.1728 82.357 65.1907 86.8613 54.2217C90.6467 44.9805 94.4864 35.7419 97.9796 26.3813C99.319 22.7907 99.5491 18.9718 99.5103 15.1477C99.4741 11.7049 99.562 7.86004 95.8077 6.91309C85.9097 4.40951 75.4843 3.37175 65.377 2.1472C59.1015 1.38445 52.808 0.715102 46.5016 0.331133C42.3645 0.0716948 37.8655 -0.340812 33.7542 0.473824C32.8467 0.652837 31.8279 0.87336 31.1686 1.57384C30.5092 2.27433 31.5771 3.38991 32.2649 2.67386C33.8499 0.987513 38.7136 1.62314 40.7381 1.65167C46.0905 1.72691 51.4428 2.19909 56.7693 2.73613C67.8644 3.85431 78.9543 5.33051 89.933 7.31262C91.9369 7.67324 96.317 7.68881 97.3229 9.70205C98.6157 12.2964 98.0184 16.6446 97.8167 19.4128C97.6926 21.0992 97.5582 22.8011 97.041 24.4226C94.7967 31.6869 91.4818 38.7436 88.635 45.7718C84.1954 56.7356 79.6938 67.6787 74.993 78.5337C73.2969 82.4486 71.5955 86.3661 69.7416 90.2084C69.0564 91.6301 68.1902 94.0766 67.0628 94.3594C65.845 94.6578 64.0712 94.2504 62.8456 94.1648C60.5418 93.9988 58.2405 93.7886 55.9419 93.5655C49.8423 92.974 43.7504 92.2683 37.6689 91.5108C31.4478 90.7325 25.2293 89.8867 19.0522 88.8385C14.2221 88.0213 8.22597 87.3779 4.23887 84.2932C1.53426 82.1995 1.9247 79.9917 2.97965 77.1327C4.23628 73.7237 5.49464 70.3155 6.75472 66.9082C9.5662 59.2894 12.3923 51.6792 15.2331 44.0776C19.983 31.3911 24.4588 18.4192 30.3101 6.22557C30.8816 5.03475 31.4323 3.72459 32.2571 2.68424C32.87 1.90074 31.7866 0.792934 31.1608 1.57644Z" fill="#364C49"/>
<path d="M97.013 9.08035C91.5159 20.9082 86.3885 32.8994 81.2404 44.8829C78.4376 51.4207 75.6011 57.943 72.731 64.4497C71.1486 68.0196 69.5489 71.5808 67.932 75.1334C67.0555 77.061 66.0988 78.9653 65.2817 80.9214C64.9844 81.6297 64.824 82.8179 64.2087 83.0437C62.6262 83.6248 59.4355 82.7012 57.8221 82.5248C54.0703 82.1226 50.3236 81.6686 46.5718 81.2276C37.2893 80.1379 27.9964 79.0327 18.6699 78.3556C14.6983 78.0676 10.6828 77.79 6.69825 77.969C5.09514 78.0417 2.16041 77.9379 1.03564 79.3908C0.433181 80.1691 1.51916 81.2795 2.13196 80.4908C3.1352 79.1936 6.5457 79.5127 7.94971 79.4868C11.7325 79.4219 15.5231 79.6735 19.2904 79.9563C28.6169 80.6542 37.9073 81.7724 47.1976 82.8543C50.9597 83.2979 54.7193 83.7545 58.4866 84.1515C60.206 84.3331 62.7633 85.0361 64.4801 84.5847C65.5816 84.2941 65.4032 84.276 66.0652 82.901C68.0484 78.7915 69.8764 74.5989 71.7536 70.4479C74.7909 63.6783 77.7713 56.8862 80.6949 50.0716C86.4842 36.6301 92.1804 23.1471 98.3498 9.85867C98.7661 8.95842 97.4319 8.16973 97.013 9.08035Z" fill="#364C49"/>
<path d="M64.1078 83.5184C63.2545 87.9497 64.263 91.3224 67.2106 94.6951C67.87 95.4448 68.9611 94.3448 68.3044 93.595C65.742 90.6738 64.8473 87.7784 65.5765 83.9361C65.7626 82.958 64.2707 82.5403 64.0845 83.521L64.1078 83.5184Z" fill="#364C49"/>
<path d="M44.5107 47.4383C39.7816 47.0699 36.6193 36.6612 37.6174 32.8293C38.7033 28.6783 43.0473 31.8616 44.3194 34.181C45.1726 35.7973 45.7486 37.5461 46.0234 39.3542C46.1113 39.899 46.9723 40.1325 47.3162 39.6967C48.3715 38.3354 49.5419 37.068 50.8146 35.9089C52.3272 34.5364 58.8509 30.5411 57.9097 35.7247C57.028 40.5943 49.377 47.1685 44.5107 47.4383C43.5204 47.4928 43.5127 49.0468 44.5107 48.9949C48.2832 48.7848 51.8049 45.9258 54.4242 43.4222C56.6065 41.3337 60.0816 37.7509 59.505 34.3678C58.9879 31.3946 55.8153 31.06 53.5192 32.1081C50.6181 33.4312 48.1514 36.1112 46.2225 38.5941L47.5153 38.9365C47.055 36.0827 45.9122 32.8034 43.7273 30.8187C41.6355 28.9196 37.8604 28.4293 36.4719 31.3557C34.1448 36.2617 38.4706 48.515 44.5107 48.9975C45.5036 49.0702 45.4907 47.5161 44.5107 47.4383Z" fill="#DD5757"/>
<path d="M97.9977 12.7488C86.9879 38.3087 76.9297 64.2863 65.1416 89.5063C64.8494 90.1315 65.7777 90.6815 66.0725 90.0511C77.8709 64.8389 87.9291 38.8613 98.9388 13.304C99.2129 12.671 98.2847 12.121 98.0106 12.7566L97.9977 12.7488Z" fill="#364C49"/>
<path d="M2.98755 80.7269C20.4563 82.875 37.9406 84.909 55.4145 87.0027C58.3079 87.3477 61.1987 87.6876 64.0869 88.0404C64.7746 88.126 64.7695 87.0442 64.0869 86.9612C46.6181 84.8156 29.1338 82.7816 11.6599 80.6854C8.7691 80.3394 5.87832 79.9935 2.98755 79.6476C2.29976 79.5646 2.30751 80.6438 2.98755 80.7295V80.7269Z" fill="#364C49"/>
<path d="M1.5861 81.5182C22.5145 85.4902 43.4739 90.3391 64.8418 91.0655C65.5348 91.0889 65.5322 90.0096 64.8418 89.9862C43.5696 89.2598 22.7084 84.4317 1.87311 80.4752C1.19566 80.3481 0.906069 81.3884 1.5861 81.513V81.5182Z" fill="#364C49"/>
<path d="M87.7767 14.6245C86.0184 19.1215 84.0619 23.5198 81.9072 27.8196C81.4599 28.712 82.7967 29.4981 83.2414 28.5979C85.4582 24.1701 87.4673 19.6533 89.2686 15.0474C89.6332 14.116 88.1361 13.7139 87.7767 14.6349V14.6245Z" fill="#364C49"/>
<path d="M78.4995 32.7256V33.4831C78.4995 34.482 80.0509 34.4846 80.0509 33.4831V32.7256C80.0509 31.7267 78.4995 31.7267 78.4995 32.7256Z" fill="#364C49"/>
</g>
<defs>
<clipPath id="clip0_801:5372">
<rect width="99" height="96" fill="white" transform="translate(0.5)"/>
</clipPath>
</defs>
</svg>
