<svg width="104" height="110" viewBox="0 0 104 110" fill="none" xmlns="http://www.w3.org/2000/svg">
<g clip-path="url(#clip0_801:4947)">
<path d="M65.5289 61.4636C65.4109 61.4636 65.2922 61.4459 65.1752 61.41C64.7134 61.2664 64.384 60.8571 64.342 60.3743L62.6298 40.6677L43.9365 32.5124C43.5066 32.3252 43.2263 31.9021 43.2208 31.4331C43.2153 30.9636 43.4856 30.5349 43.9111 30.3366L61.3921 22.2277L61.6774 1.67599C61.684 1.19874 61.9742 0.771197 62.4151 0.590018C62.856 0.407733 63.3626 0.507713 63.703 0.840797L78.2667 15.1341L96.5009 9.42971C96.9545 9.28775 97.45 9.42971 97.7607 9.79151C98.0708 10.1539 98.1353 10.6659 97.9251 11.0935L89.9367 27.3726L99.9447 43.9743C100.174 44.3537 100.173 44.8293 99.9441 45.2083C99.7151 45.5878 99.3024 45.8148 98.8527 45.7811L79.9524 44.6344L66.4477 61.0295C66.2181 61.3095 65.8782 61.4636 65.5289 61.4636ZM47.3179 31.3861L64.2311 38.7648C64.6312 38.9393 64.9043 39.3194 64.9418 39.7547L66.4631 57.2617L78.5001 42.6491C78.7423 42.3547 79.112 42.194 79.4911 42.2177L96.7332 43.2634L87.5612 28.0481C87.3515 27.7001 87.3333 27.2704 87.5121 26.9058L94.5641 12.5346L78.297 17.6237C77.8793 17.7546 77.4213 17.6452 77.1073 17.337L64.0214 4.49422L63.7648 23.011C63.7582 23.47 63.49 23.8838 63.0745 24.0771L47.3179 31.3861Z" fill="#364C49"/>
<path d="M11.2765 43.3263C11.1656 43.3263 11.0536 43.3109 10.9438 43.2788C10.5189 43.1545 10.1972 42.8054 10.1095 42.3713L8.65936 35.2301L1.19628 31.8176C0.755941 31.6165 0.481145 31.1685 0.501009 30.6846C0.520322 30.2007 0.830434 29.7771 1.28512 29.6114L8.38457 27.0345L9.54942 19.3084C9.6195 18.8439 9.95499 18.4644 10.4069 18.3379C10.8561 18.212 11.3422 18.3622 11.6424 18.7224L16.336 24.356L23.9354 22.4365C24.3983 22.3161 24.885 22.4901 25.1742 22.869C25.4633 23.2485 25.4986 23.7645 25.2641 24.1798L21.4241 30.9824L25.3176 37.1441C25.5726 37.5474 25.5626 38.0627 25.2934 38.4566C25.0241 38.8488 24.5462 39.0421 24.0794 38.9521L17.2879 37.6059L12.1335 42.9618C11.9067 43.1982 11.5955 43.3263 11.2765 43.3263ZM4.8365 30.8603L10.2005 33.3128C10.5471 33.4714 10.7976 33.7862 10.8732 34.1602L11.9922 39.6707L16.0242 35.4809C16.3051 35.1887 16.7151 35.0622 17.1135 35.1384L21.822 36.072L19.0299 31.6541C18.7954 31.2829 18.7838 30.8122 18.999 30.4294L21.8209 25.431L16.192 26.8528C15.7467 26.9677 15.2793 26.813 14.9857 26.4606L11.51 22.2879L10.6348 28.0929C10.5697 28.5254 10.2734 28.8872 9.86284 29.0363L4.8365 30.8603Z" fill="#364C49"/>
<path d="M96.4191 83.0969C96.1978 83.0969 95.976 83.0351 95.7817 82.9119L89.6308 79.0149L82.0038 82.0424C81.553 82.222 81.041 82.1093 80.706 81.7596C80.3711 81.4111 80.28 80.8929 80.4754 80.4505L83.5334 73.5386L78.772 67.347C78.4856 66.9753 78.4442 66.4698 78.666 66.0556C78.8873 65.6418 79.3376 65.3927 79.7989 65.4297L87.1091 65.9407L90.9871 59.1221C91.2233 58.7073 91.6835 58.4692 92.157 58.5272C92.631 58.5808 93.0271 58.9122 93.164 59.369L95.4082 66.8532L102.546 68.3081C103.012 68.4026 103.378 68.7672 103.474 69.2345C103.571 69.7012 103.381 70.1813 102.991 70.4541L97.3179 74.4263L97.6098 81.8568C97.627 82.2993 97.398 82.7158 97.0139 82.9367C96.8302 83.0445 96.6243 83.0969 96.4191 83.0969ZM89.7561 76.4905C89.9785 76.4905 90.2003 76.5524 90.3934 76.6755L95.14 79.6827L94.9121 73.87C94.8961 73.4646 95.0876 73.079 95.4198 72.8459L99.3524 70.0929L94.235 69.0494C93.8052 68.9616 93.4581 68.6451 93.3317 68.2242L91.683 62.7236L88.8103 67.7745C88.5835 68.1728 88.1454 68.4142 87.6918 68.3739L82.2781 67.9949L85.8554 72.6465C86.1219 72.9928 86.1777 73.4568 86.0011 73.8568L83.8353 78.7508L89.3174 76.5745C89.4587 76.5181 89.6071 76.4905 89.7561 76.4905Z" fill="#364C49"/>
<path d="M11.5023 63.9538C7.54648 63.9538 5.09814 61.3775 5.09814 58.9901C5.09814 58.7277 5.11966 58.4576 5.14174 58.1941C5.15719 58.0118 5.17374 57.834 5.17374 57.6694C5.17374 56.3006 7.05648 52.9239 9.89825 52.9239C10.8413 52.9239 11.7495 53.2526 12.5259 53.8734C13.0396 54.2849 13.123 55.0356 12.7119 55.5499C12.3013 56.0653 11.5525 56.1487 11.0372 55.7371C10.6879 55.4565 10.2939 55.309 9.8977 55.309C8.69036 55.309 7.60552 57.1932 7.55476 57.6909C7.55531 57.8969 7.53599 58.1427 7.51503 58.3952C7.49847 58.5918 7.48026 58.7934 7.48026 58.9901C7.48026 60.0435 8.91218 61.5686 11.5018 61.5686C15.5139 61.5686 18.3104 56.4403 18.3104 51.8385C18.3104 48.185 17.1219 45.9849 15.9592 44.3145C15.7098 43.9566 15.6756 43.4909 15.8709 43.1004C16.0657 42.7099 16.458 42.4569 16.894 42.4414C17.102 42.4337 17.3111 42.4298 17.5197 42.4298C27.0548 42.4298 30.6509 48.8368 32.7996 52.6648C33.2234 53.4194 33.5892 54.0717 33.9137 54.5153C34.3032 55.0461 34.1885 55.7924 33.6576 56.1824C33.1273 56.5707 32.3819 56.4574 31.9923 55.9255C31.5823 55.3665 31.1839 54.6561 30.7221 53.8337C28.8421 50.4835 26.0654 45.5364 19.0929 44.8868C19.9697 46.5865 20.6931 48.8109 20.6931 51.839C20.6931 57.6898 16.9999 63.9538 11.5023 63.9538Z" fill="#DD5757"/>
<path d="M24.2684 57.956C23.6101 57.956 23.0771 57.4219 23.0771 56.7635C23.0771 53.7563 22.6434 51.5413 21.7125 49.7941C21.4029 49.2125 21.6231 48.4905 22.2036 48.1806C22.7841 47.8691 23.5064 48.0911 23.8154 48.6711C24.9372 50.7774 25.4598 53.3492 25.4598 56.7629C25.4598 57.4219 24.9262 57.956 24.2684 57.956Z" fill="#364C49"/>
<path d="M18.5507 80.245C18.3923 80.245 18.2312 80.213 18.0761 80.1467C17.4725 79.8832 17.196 79.1817 17.4587 78.5774C20.8108 70.8579 36.4505 51.8633 61.0861 45.6982C61.7257 45.5397 62.3707 45.9275 62.5307 46.5666C62.6908 47.2046 62.3023 47.8525 61.6639 48.0122C37.8802 53.9635 22.8492 72.1472 19.6432 79.528C19.449 79.9771 19.0109 80.245 18.5507 80.245Z" fill="#364C49"/>
<path d="M31.9427 81.1487C31.9118 81.1487 31.8814 81.1481 31.85 81.1448C31.1944 81.0946 30.7033 80.5212 30.7535 79.8644C31.1486 74.7251 40.5149 64.4619 48.9662 57.9002C49.4121 57.5544 50.0395 57.5694 50.4693 57.935C50.8992 58.3013 51.0128 58.9194 50.7414 59.416C48.3079 63.8659 47.0741 68.2115 47.0741 72.3327C47.0741 72.8923 47.0978 73.4513 47.1442 73.996C47.1999 74.6522 46.7138 75.2289 46.0582 75.2846C45.3977 75.3415 44.8261 74.8538 44.7698 74.1976C44.7179 73.5866 44.6914 72.9591 44.6914 72.3327C44.6914 69.3256 45.2791 66.2284 46.4445 63.0782C38.6856 69.9028 33.3564 77.092 33.129 80.0472C33.0816 80.6731 32.5596 81.1487 31.9427 81.1487Z" fill="#364C49"/>
<path d="M64.154 109.5C63.8494 109.5 63.5443 109.383 63.3114 109.15C61.6582 107.496 52.1689 91.6969 52.1689 75.1455C52.1689 68.5269 53.3377 61.9033 55.6436 55.4571C55.8649 54.8368 56.5475 54.5147 57.1666 54.7368C57.7863 54.9588 58.1085 55.6416 57.8867 56.2619C55.674 62.4485 54.5522 68.802 54.5522 75.1455C54.5522 90.7076 63.5073 105.973 64.9966 107.464C65.4618 107.93 65.4618 108.685 64.9966 109.15C64.7632 109.383 64.4586 109.5 64.154 109.5Z" fill="#364C49"/>
<path d="M66.2645 85.6517C66.0338 85.6517 65.8015 85.5848 65.5968 85.4456C65.0522 85.0761 64.9104 84.3337 65.2801 83.7896C68.5749 78.9292 74.5509 77.2478 78.984 76.6943C79.6407 76.6104 80.2322 77.076 80.3139 77.73C80.3955 78.3829 79.932 78.9795 79.2798 79.0607C75.335 79.554 70.046 81.0067 67.2522 85.128C67.021 85.4683 66.6463 85.6517 66.2645 85.6517Z" fill="#364C49"/>
<path d="M88.2776 102.227C83.8455 102.227 81.2002 98.2724 81.2002 91.6477C81.2002 89.1493 81.5815 86.6714 81.9512 84.2763L82.0891 83.3764C82.1874 82.7252 82.7932 82.2816 83.4455 82.3755C84.096 82.4738 84.5436 83.082 84.4448 83.7333L84.3057 84.6392C83.9504 86.9459 83.5829 89.3311 83.5829 91.6472C83.5829 94.1108 84.0403 99.8411 88.2776 99.8411C89.326 99.8411 92.6865 98.0553 92.6865 95.969C92.6865 95.2365 92.271 93.8523 90.6994 93.8523C89.2813 93.8523 89.2813 94.2616 89.2813 94.5908C89.2813 94.6598 89.2868 94.7322 89.2973 94.8057C89.39 95.458 88.937 96.0612 88.2853 96.1546C87.6364 96.2408 87.0305 95.7933 86.9384 95.1415C86.9113 94.9526 86.8986 94.7687 86.8986 94.5908C86.8986 93.6512 87.2689 91.4671 90.6994 91.4671C93.5373 91.4671 95.0691 93.7865 95.0691 95.969C95.0691 99.7329 90.2365 102.227 88.2776 102.227Z" fill="#364C49"/>
<path d="M76.4962 100.11C76.1916 100.11 75.8859 99.9931 75.6536 99.76C73.7781 97.8819 73.6826 93.0839 73.6826 92.1416C73.6826 88.4141 74.7349 84.9469 76.7252 82.1154C77.1032 81.5768 77.847 81.4475 78.385 81.8265C78.923 82.2054 79.0527 82.9495 78.6736 83.488C76.9675 85.9157 76.0653 88.9085 76.0653 92.1416C76.0653 94.4306 76.5415 97.2754 77.3388 98.0735C77.804 98.5392 77.804 99.2948 77.3383 99.76C77.1054 99.9931 76.8008 100.11 76.4962 100.11Z" fill="#364C49"/>
</g>
<defs>
<clipPath id="clip0_801:4947">
<rect width="103" height="109" fill="white" transform="translate(0.5 0.5)"/>
</clipPath>
</defs>
</svg>
