<svg width="24" height="24" viewBox="0 0 24 24" fill="none" xmlns="http://www.w3.org/2000/svg">
<g clip-path="url(#clip0_801_8626)">
<path d="M21.508 5.42317C20.3118 5.16012 19.2296 4.52489 18.4169 3.60864C17.6041 2.69238 17.1025 1.54221 16.984 0.323166V-0.204834H12.844V16.1992C12.8448 16.927 12.6166 17.6367 12.1917 18.2277C11.7668 18.8187 11.1667 19.261 10.4765 19.4919C9.7862 19.7229 9.04077 19.7308 8.34575 19.5146C7.65074 19.2984 7.04137 18.869 6.60398 18.2872C6.21212 17.7722 5.97216 17.1578 5.91125 16.5136C5.85035 15.8693 5.97091 15.2209 6.25931 14.6416C6.54772 14.0623 6.99246 13.5752 7.54323 13.2355C8.09401 12.8958 8.72886 12.7169 9.37598 12.7192C9.73387 12.7171 10.09 12.7697 10.432 12.8752V8.67517C10.034 8.62588 9.63291 8.60582 9.23198 8.61517C7.75515 8.65463 6.32188 9.12389 5.10768 9.96549C3.89348 10.8071 2.95105 11.9845 2.39579 13.3535C1.84053 14.7226 1.69655 16.2238 1.98148 17.6734C2.26641 19.1231 2.96787 20.4581 3.99998 21.5152C5.05776 22.5906 6.41137 23.3273 7.88881 23.6317C9.36625 23.9361 10.9008 23.7944 12.2976 23.2247C13.6943 22.6549 14.8901 21.6828 15.7331 20.4319C16.5761 19.1809 17.0282 17.7076 17.032 16.1992V7.79917C18.7017 8.9919 20.704 9.62994 22.756 9.62317V5.54317C22.3529 5.54483 21.9507 5.50461 21.556 5.42317H21.508Z" fill="#38524F"/>
</g>
<defs>
<clipPath id="clip0_801_8626">
<rect width="24" height="24" fill="white"/>
</clipPath>
</defs>
</svg>
