<svg width="25" height="24" viewBox="0 0 25 24" fill="none" xmlns="http://www.w3.org/2000/svg">
<path d="M24.126 5.82609C24.2937 5.26809 24.126 4.85889 23.3331 4.85889H20.7066C20.0383 4.85889 19.7328 5.21289 19.5652 5.60169C19.5652 5.60169 18.2297 8.86449 16.3374 10.9801C15.7265 11.5957 15.4475 11.7901 15.1145 11.7901C14.948 11.7901 14.7061 11.5957 14.7061 11.0377V5.82609C14.7061 5.15649 14.5133 4.85889 13.9563 4.85889H9.82908C9.41228 4.85889 9.16076 5.16849 9.16076 5.46369C9.16076 6.09729 10.1069 6.24369 10.204 8.02929V11.9029C10.204 12.7513 10.0518 12.9061 9.71649 12.9061C8.8266 12.9061 6.66116 9.63129 5.37604 5.88249C5.12572 5.15409 4.873 4.86009 4.20229 4.86009H1.57694C0.825982 4.86009 0.67627 5.21409 0.67627 5.60289C0.67627 6.30129 1.56616 9.75729 4.8215 14.3281C6.99173 17.4493 10.0471 19.1413 12.8305 19.1413C14.4989 19.1413 14.7049 18.7657 14.7049 18.1177V15.7585C14.7049 15.0073 14.8642 14.8561 15.3924 14.8561C15.7804 14.8561 16.4488 15.0529 18.007 16.5565C19.7867 18.3397 20.0814 19.1401 21.0814 19.1401H23.7068C24.4566 19.1401 24.8314 18.7645 24.6159 18.0229C24.3799 17.2849 23.5295 16.2109 22.4013 14.9401C21.7881 14.2153 20.8718 13.4353 20.5928 13.0453C20.2035 12.5425 20.3161 12.3205 20.5928 11.8741C20.5928 11.8741 23.793 7.36089 24.126 5.82609Z" fill="#38524F"/>
</svg>
